<mxfile host="Electron" modified="2024-04-17T08:00:16.335Z" agent="Mozilla/5.0 (Windows NT 10.0; Win64; x64) AppleWebKit/537.36 (KHTML, like Gecko) draw.io/24.2.5 Chrome/120.0.6099.109 Electron/28.1.0 Safari/537.36" etag="UL-Np8-Gtl_bzFNVMpZs" version="24.2.5" type="device">
  <diagram name="Pagina-1" id="NZTGYgn6og5NZza3zPcK">
    <mxGraphModel dx="733" dy="443" grid="1" gridSize="10" guides="1" tooltips="1" connect="1" arrows="1" fold="1" page="1" pageScale="1" pageWidth="827" pageHeight="1169" math="0" shadow="0">
      <root>
        <mxCell id="0" />
        <mxCell id="1" parent="0" />
        <mxCell id="TwlZA3F9hRCMoFqiWinC-15" style="edgeStyle=orthogonalEdgeStyle;rounded=0;orthogonalLoop=1;jettySize=auto;html=1;entryX=0;entryY=0.5;entryDx=0;entryDy=0;" edge="1" parent="1" source="TwlZA3F9hRCMoFqiWinC-1" target="TwlZA3F9hRCMoFqiWinC-2">
          <mxGeometry relative="1" as="geometry" />
        </mxCell>
        <mxCell id="TwlZA3F9hRCMoFqiWinC-16" style="edgeStyle=orthogonalEdgeStyle;rounded=0;orthogonalLoop=1;jettySize=auto;html=1;entryX=0;entryY=0.5;entryDx=0;entryDy=0;" edge="1" parent="1" source="TwlZA3F9hRCMoFqiWinC-1" target="TwlZA3F9hRCMoFqiWinC-4">
          <mxGeometry relative="1" as="geometry" />
        </mxCell>
        <mxCell id="TwlZA3F9hRCMoFqiWinC-17" style="edgeStyle=orthogonalEdgeStyle;rounded=0;orthogonalLoop=1;jettySize=auto;html=1;entryX=0;entryY=0.5;entryDx=0;entryDy=0;" edge="1" parent="1" source="TwlZA3F9hRCMoFqiWinC-1" target="TwlZA3F9hRCMoFqiWinC-7">
          <mxGeometry relative="1" as="geometry" />
        </mxCell>
        <mxCell id="TwlZA3F9hRCMoFqiWinC-18" style="edgeStyle=orthogonalEdgeStyle;rounded=0;orthogonalLoop=1;jettySize=auto;html=1;entryX=0;entryY=0.5;entryDx=0;entryDy=0;" edge="1" parent="1" source="TwlZA3F9hRCMoFqiWinC-1" target="TwlZA3F9hRCMoFqiWinC-9">
          <mxGeometry relative="1" as="geometry">
            <Array as="points">
              <mxPoint x="370" y="635" />
            </Array>
          </mxGeometry>
        </mxCell>
        <mxCell id="TwlZA3F9hRCMoFqiWinC-19" style="edgeStyle=orthogonalEdgeStyle;rounded=0;orthogonalLoop=1;jettySize=auto;html=1;entryX=0;entryY=0.5;entryDx=0;entryDy=0;" edge="1" parent="1" source="TwlZA3F9hRCMoFqiWinC-1" target="TwlZA3F9hRCMoFqiWinC-11">
          <mxGeometry relative="1" as="geometry">
            <Array as="points">
              <mxPoint x="370" y="675" />
            </Array>
          </mxGeometry>
        </mxCell>
        <mxCell id="TwlZA3F9hRCMoFqiWinC-20" style="edgeStyle=orthogonalEdgeStyle;rounded=0;orthogonalLoop=1;jettySize=auto;html=1;entryX=0;entryY=0.5;entryDx=0;entryDy=0;" edge="1" parent="1" source="TwlZA3F9hRCMoFqiWinC-1" target="TwlZA3F9hRCMoFqiWinC-13">
          <mxGeometry relative="1" as="geometry">
            <Array as="points">
              <mxPoint x="370" y="715" />
            </Array>
          </mxGeometry>
        </mxCell>
        <mxCell id="TwlZA3F9hRCMoFqiWinC-35" style="edgeStyle=orthogonalEdgeStyle;rounded=0;orthogonalLoop=1;jettySize=auto;html=1;entryX=0;entryY=0.5;entryDx=0;entryDy=0;" edge="1" parent="1" source="TwlZA3F9hRCMoFqiWinC-1" target="TwlZA3F9hRCMoFqiWinC-34">
          <mxGeometry relative="1" as="geometry" />
        </mxCell>
        <mxCell id="TwlZA3F9hRCMoFqiWinC-39" style="edgeStyle=orthogonalEdgeStyle;rounded=0;orthogonalLoop=1;jettySize=auto;html=1;entryX=1;entryY=0.5;entryDx=0;entryDy=0;" edge="1" parent="1" source="TwlZA3F9hRCMoFqiWinC-1" target="TwlZA3F9hRCMoFqiWinC-38">
          <mxGeometry relative="1" as="geometry" />
        </mxCell>
        <mxCell id="TwlZA3F9hRCMoFqiWinC-1" value="Impiegato" style="rounded=0;whiteSpace=wrap;html=1;" vertex="1" parent="1">
          <mxGeometry x="310" y="420" width="120" height="60" as="geometry" />
        </mxCell>
        <mxCell id="TwlZA3F9hRCMoFqiWinC-2" value="" style="ellipse;whiteSpace=wrap;html=1;aspect=fixed;fillColor=#f5f5f5;fontColor=#333333;strokeColor=#666666;" vertex="1" parent="1">
          <mxGeometry x="430" y="500" width="30" height="30" as="geometry" />
        </mxCell>
        <mxCell id="TwlZA3F9hRCMoFqiWinC-3" value="Matricola" style="text;html=1;align=center;verticalAlign=middle;resizable=0;points=[];autosize=1;strokeColor=none;fillColor=none;" vertex="1" parent="1">
          <mxGeometry x="460" y="500" width="70" height="30" as="geometry" />
        </mxCell>
        <mxCell id="TwlZA3F9hRCMoFqiWinC-4" value="" style="ellipse;whiteSpace=wrap;html=1;aspect=fixed;" vertex="1" parent="1">
          <mxGeometry x="430" y="540" width="30" height="30" as="geometry" />
        </mxCell>
        <mxCell id="TwlZA3F9hRCMoFqiWinC-5" value="Nome" style="text;html=1;align=center;verticalAlign=middle;resizable=0;points=[];autosize=1;strokeColor=none;fillColor=none;" vertex="1" parent="1">
          <mxGeometry x="455" y="540" width="60" height="30" as="geometry" />
        </mxCell>
        <mxCell id="TwlZA3F9hRCMoFqiWinC-7" value="" style="ellipse;whiteSpace=wrap;html=1;aspect=fixed;" vertex="1" parent="1">
          <mxGeometry x="430" y="580" width="30" height="30" as="geometry" />
        </mxCell>
        <mxCell id="TwlZA3F9hRCMoFqiWinC-8" value="Cognome" style="text;html=1;align=center;verticalAlign=middle;resizable=0;points=[];autosize=1;strokeColor=none;fillColor=none;" vertex="1" parent="1">
          <mxGeometry x="455" y="580" width="80" height="30" as="geometry" />
        </mxCell>
        <mxCell id="TwlZA3F9hRCMoFqiWinC-9" value="" style="ellipse;whiteSpace=wrap;html=1;aspect=fixed;" vertex="1" parent="1">
          <mxGeometry x="432.5" y="620" width="30" height="30" as="geometry" />
        </mxCell>
        <mxCell id="TwlZA3F9hRCMoFqiWinC-10" value="Data di nascita" style="text;html=1;align=center;verticalAlign=middle;resizable=0;points=[];autosize=1;strokeColor=none;fillColor=none;" vertex="1" parent="1">
          <mxGeometry x="460" y="620" width="100" height="30" as="geometry" />
        </mxCell>
        <mxCell id="TwlZA3F9hRCMoFqiWinC-11" value="" style="ellipse;whiteSpace=wrap;html=1;aspect=fixed;" vertex="1" parent="1">
          <mxGeometry x="432.5" y="660" width="30" height="30" as="geometry" />
        </mxCell>
        <mxCell id="TwlZA3F9hRCMoFqiWinC-12" value="Ruolo" style="text;html=1;align=center;verticalAlign=middle;resizable=0;points=[];autosize=1;strokeColor=none;fillColor=none;" vertex="1" parent="1">
          <mxGeometry x="460.5" y="660" width="50" height="30" as="geometry" />
        </mxCell>
        <mxCell id="TwlZA3F9hRCMoFqiWinC-13" value="" style="ellipse;whiteSpace=wrap;html=1;aspect=fixed;" vertex="1" parent="1">
          <mxGeometry x="432.5" y="700" width="30" height="30" as="geometry" />
        </mxCell>
        <mxCell id="TwlZA3F9hRCMoFqiWinC-14" value="Via di residenza" style="text;html=1;align=center;verticalAlign=middle;resizable=0;points=[];autosize=1;strokeColor=none;fillColor=none;" vertex="1" parent="1">
          <mxGeometry x="458" y="700" width="110" height="30" as="geometry" />
        </mxCell>
        <mxCell id="TwlZA3F9hRCMoFqiWinC-24" style="edgeStyle=orthogonalEdgeStyle;rounded=0;orthogonalLoop=1;jettySize=auto;html=1;entryX=0;entryY=0.5;entryDx=0;entryDy=0;" edge="1" parent="1" source="TwlZA3F9hRCMoFqiWinC-21" target="TwlZA3F9hRCMoFqiWinC-22">
          <mxGeometry relative="1" as="geometry" />
        </mxCell>
        <mxCell id="TwlZA3F9hRCMoFqiWinC-36" style="edgeStyle=orthogonalEdgeStyle;rounded=0;orthogonalLoop=1;jettySize=auto;html=1;entryX=1;entryY=0.5;entryDx=0;entryDy=0;endArrow=doubleBlock;endFill=1;" edge="1" parent="1" source="TwlZA3F9hRCMoFqiWinC-21" target="TwlZA3F9hRCMoFqiWinC-34">
          <mxGeometry relative="1" as="geometry" />
        </mxCell>
        <mxCell id="TwlZA3F9hRCMoFqiWinC-21" value="Reparto" style="rounded=0;whiteSpace=wrap;html=1;" vertex="1" parent="1">
          <mxGeometry x="670" y="420" width="120" height="60" as="geometry" />
        </mxCell>
        <mxCell id="TwlZA3F9hRCMoFqiWinC-22" value="" style="ellipse;whiteSpace=wrap;html=1;aspect=fixed;fillColor=#f5f5f5;fontColor=#333333;strokeColor=#666666;" vertex="1" parent="1">
          <mxGeometry x="760" y="500" width="30" height="30" as="geometry" />
        </mxCell>
        <mxCell id="TwlZA3F9hRCMoFqiWinC-23" value="Nome" style="text;html=1;align=center;verticalAlign=middle;resizable=0;points=[];autosize=1;strokeColor=none;fillColor=none;" vertex="1" parent="1">
          <mxGeometry x="780" y="500" width="60" height="30" as="geometry" />
        </mxCell>
        <mxCell id="TwlZA3F9hRCMoFqiWinC-28" style="edgeStyle=orthogonalEdgeStyle;rounded=0;orthogonalLoop=1;jettySize=auto;html=1;entryX=0;entryY=0.5;entryDx=0;entryDy=0;" edge="1" parent="1" source="TwlZA3F9hRCMoFqiWinC-25" target="TwlZA3F9hRCMoFqiWinC-26">
          <mxGeometry relative="1" as="geometry">
            <Array as="points">
              <mxPoint x="90" y="195" />
            </Array>
          </mxGeometry>
        </mxCell>
        <mxCell id="TwlZA3F9hRCMoFqiWinC-44" style="edgeStyle=orthogonalEdgeStyle;rounded=0;orthogonalLoop=1;jettySize=auto;html=1;entryX=0.5;entryY=0;entryDx=0;entryDy=0;endArrow=doubleBlock;endFill=1;" edge="1" parent="1" source="TwlZA3F9hRCMoFqiWinC-25" target="TwlZA3F9hRCMoFqiWinC-43">
          <mxGeometry relative="1" as="geometry" />
        </mxCell>
        <mxCell id="TwlZA3F9hRCMoFqiWinC-25" value="Provincia" style="rounded=0;whiteSpace=wrap;html=1;" vertex="1" parent="1">
          <mxGeometry y="90" width="120" height="60" as="geometry" />
        </mxCell>
        <mxCell id="TwlZA3F9hRCMoFqiWinC-26" value="" style="ellipse;whiteSpace=wrap;html=1;aspect=fixed;fillColor=#f5f5f5;fontColor=#333333;strokeColor=#666666;" vertex="1" parent="1">
          <mxGeometry x="120" y="180" width="30" height="30" as="geometry" />
        </mxCell>
        <mxCell id="TwlZA3F9hRCMoFqiWinC-27" value="Provincia" style="text;html=1;align=center;verticalAlign=middle;resizable=0;points=[];autosize=1;strokeColor=none;fillColor=none;" vertex="1" parent="1">
          <mxGeometry x="150" y="180" width="70" height="30" as="geometry" />
        </mxCell>
        <mxCell id="TwlZA3F9hRCMoFqiWinC-32" style="edgeStyle=orthogonalEdgeStyle;rounded=0;orthogonalLoop=1;jettySize=auto;html=1;entryX=0;entryY=0.5;entryDx=0;entryDy=0;" edge="1" parent="1" source="TwlZA3F9hRCMoFqiWinC-29" target="TwlZA3F9hRCMoFqiWinC-30">
          <mxGeometry relative="1" as="geometry" />
        </mxCell>
        <mxCell id="TwlZA3F9hRCMoFqiWinC-40" style="edgeStyle=orthogonalEdgeStyle;rounded=0;orthogonalLoop=1;jettySize=auto;html=1;entryX=0;entryY=0.5;entryDx=0;entryDy=0;endArrow=doubleBlock;endFill=1;" edge="1" parent="1" source="TwlZA3F9hRCMoFqiWinC-29" target="TwlZA3F9hRCMoFqiWinC-38">
          <mxGeometry relative="1" as="geometry" />
        </mxCell>
        <mxCell id="TwlZA3F9hRCMoFqiWinC-45" style="edgeStyle=orthogonalEdgeStyle;rounded=0;orthogonalLoop=1;jettySize=auto;html=1;entryX=0.5;entryY=1;entryDx=0;entryDy=0;" edge="1" parent="1" source="TwlZA3F9hRCMoFqiWinC-29" target="TwlZA3F9hRCMoFqiWinC-43">
          <mxGeometry relative="1" as="geometry" />
        </mxCell>
        <mxCell id="TwlZA3F9hRCMoFqiWinC-29" value="Citta" style="rounded=0;whiteSpace=wrap;html=1;" vertex="1" parent="1">
          <mxGeometry y="420" width="120" height="60" as="geometry" />
        </mxCell>
        <mxCell id="TwlZA3F9hRCMoFqiWinC-30" value="" style="ellipse;whiteSpace=wrap;html=1;aspect=fixed;fillColor=#f5f5f5;fontColor=#333333;strokeColor=#666666;" vertex="1" parent="1">
          <mxGeometry x="120" y="500" width="30" height="30" as="geometry" />
        </mxCell>
        <mxCell id="TwlZA3F9hRCMoFqiWinC-31" value="Citta" style="text;html=1;align=center;verticalAlign=middle;resizable=0;points=[];autosize=1;strokeColor=none;fillColor=none;" vertex="1" parent="1">
          <mxGeometry x="150" y="500" width="50" height="30" as="geometry" />
        </mxCell>
        <mxCell id="TwlZA3F9hRCMoFqiWinC-34" value="Appartiene" style="rhombus;whiteSpace=wrap;html=1;" vertex="1" parent="1">
          <mxGeometry x="510.5" y="415" width="70" height="70" as="geometry" />
        </mxCell>
        <mxCell id="TwlZA3F9hRCMoFqiWinC-37" value="" style="endArrow=none;html=1;rounded=0;" edge="1" parent="1">
          <mxGeometry width="50" height="50" relative="1" as="geometry">
            <mxPoint x="660" y="460" as="sourcePoint" />
            <mxPoint x="660" y="440" as="targetPoint" />
          </mxGeometry>
        </mxCell>
        <mxCell id="TwlZA3F9hRCMoFqiWinC-38" value="Risiede" style="rhombus;whiteSpace=wrap;html=1;" vertex="1" parent="1">
          <mxGeometry x="180" y="415" width="70" height="70" as="geometry" />
        </mxCell>
        <mxCell id="TwlZA3F9hRCMoFqiWinC-41" value="" style="endArrow=none;html=1;rounded=0;" edge="1" parent="1">
          <mxGeometry width="50" height="50" relative="1" as="geometry">
            <mxPoint x="134.83" y="460" as="sourcePoint" />
            <mxPoint x="134.83" y="440" as="targetPoint" />
          </mxGeometry>
        </mxCell>
        <mxCell id="TwlZA3F9hRCMoFqiWinC-43" value="Possiede" style="rhombus;whiteSpace=wrap;html=1;" vertex="1" parent="1">
          <mxGeometry x="25" y="250" width="70" height="70" as="geometry" />
        </mxCell>
        <mxCell id="TwlZA3F9hRCMoFqiWinC-46" value="" style="endArrow=none;html=1;rounded=0;" edge="1" parent="1">
          <mxGeometry width="50" height="50" relative="1" as="geometry">
            <mxPoint x="50" y="170" as="sourcePoint" />
            <mxPoint x="70" y="170" as="targetPoint" />
          </mxGeometry>
        </mxCell>
      </root>
    </mxGraphModel>
  </diagram>
</mxfile>
